<?xml version="1.0" encoding="UTF-8" standalone="no"?>
<svg width="30px" height="23px" viewBox="0 0 30 23" version="1.1" xmlns="http://www.w3.org/2000/svg" xmlns:xlink="http://www.w3.org/1999/xlink" xmlns:sketch="http://www.bohemiancoding.com/sketch/ns">
    <!-- Generator: Sketch 3.3.3 (12072) - http://www.bohemiancoding.com/sketch -->
    <title>hamburger</title>
    <desc>Created with Sketch.</desc>
    <defs></defs>
    <g id="Page-1" stroke="none" stroke-width="1" fill="none" fill-rule="evenodd" sketch:type="MSPage">
        <g id="Artboard-1" sketch:type="MSArtboardGroup" transform="translate(-11.000000, -14.000000)" fill="#FFFF00">
            <g id="hamburger" sketch:type="MSLayerGroup" transform="translate(11.000000, 14.000000)">
                <path d="M1.5,3 L28.5,3 C29.3284271,3 30,2.32842712 30,1.5 C30,0.671572875 29.3284271,0 28.5,0 L1.5,0 C0.671572875,0 0,0.671572875 0,1.5 C0,2.32842712 0.671572875,3 1.5,3 L1.5,3 Z" id="Shape" sketch:type="MSShapeGroup"></path>
                <path d="M1.5,13 L28.5,13 C29.3284271,13 30,12.3284271 30,11.5 C30,10.6715729 29.3284271,10 28.5,10 L1.5,10 C0.671572875,10 0,10.6715729 0,11.5 C0,12.3284271 0.671572875,13 1.5,13 L1.5,13 Z" id="Shape" sketch:type="MSShapeGroup"></path>
                <path d="M1.5,23 L28.5,23 C29.3284271,23 30,22.3284271 30,21.5 C30,20.6715729 29.3284271,20 28.5,20 L1.5,20 C0.671572875,20 0,20.6715729 0,21.5 C0,22.3284271 0.671572875,23 1.5,23 L1.5,23 Z" id="Shape" sketch:type="MSShapeGroup"></path>
            </g>
        </g>
    </g>
</svg>